<svg xmlns="http://www.w3.org/2000/svg" shape-rendering="geometricPrecision" text-rendering="geometricPrecision" image-rendering="optimizeQuality" fill-rule="evenodd" clip-rule="evenodd" viewBox="0 0 513 357.071"><path fill="#21468B" fill-rule="nonzero" d="M.32 239.036h512.36v89.555c0 15.488-12.671 28.16-28.159 28.16H28.477c-15.486 0-28.157-12.672-28.157-28.16v-89.555z"/><path fill="#fff" fill-rule="nonzero" d="M512.68 239.036H.32V28.48C.32 12.992 12.991.32 28.477.32h456.044c15.488 0 28.159 12.672 28.159 28.16v210.556z"/><path fill="#AE1C28" fill-rule="nonzero" d="M512.68 118.035H.32V28.48C.32 12.992 12.991.32 28.477.32h456.044c15.488 0 28.159 12.672 28.159 28.16v89.555z"/><rect fill="none" stroke="#CCC" stroke-width=".64" stroke-miterlimit="22.926" x=".32" y=".319" width="512.359" height="356.43" rx="27.231" ry="28.159"/></svg>