<svg width="39" height="17" viewBox="0 0 39 17" fill="none" xmlns="http://www.w3.org/2000/svg">
<path d="M5.072 16.24C4.144 16.24 3.296 16.04 2.528 15.64C1.776 15.24 1.176 14.656 0.728 13.888C0.296 13.104 0.08 12.152 0.08 11.032C0.08 9.928 0.312 8.976 0.776 8.176C1.24 7.36 1.856 6.736 2.624 6.304C3.408 5.872 4.264 5.656 5.192 5.656C6.12 5.656 6.904 5.872 7.544 6.304C8.184 6.72 8.672 7.216 9.008 7.792L8.864 8.176L9.08 6.064H11.144V16H8.912V13.408L9.152 13.984C9.088 14.144 8.944 14.352 8.72 14.608C8.512 14.848 8.224 15.096 7.856 15.352C7.504 15.608 7.096 15.824 6.632 16C6.168 16.16 5.648 16.24 5.072 16.24ZM5.672 14.392C6.232 14.392 6.736 14.288 7.184 14.08C7.632 13.872 8 13.584 8.288 13.216C8.592 12.832 8.8 12.376 8.912 11.848V9.904C8.784 9.424 8.56 9.008 8.24 8.656C7.92 8.288 7.536 8.008 7.088 7.816C6.64 7.608 6.144 7.504 5.6 7.504C5.008 7.504 4.464 7.648 3.968 7.936C3.472 8.224 3.072 8.624 2.768 9.136C2.48 9.648 2.336 10.248 2.336 10.936C2.336 11.576 2.488 12.16 2.792 12.688C3.096 13.216 3.504 13.632 4.016 13.936C4.528 14.24 5.08 14.392 5.672 14.392ZM13.5665 1.696H15.7985V6.112H18.5345V7.864H15.7985V16H13.5665V7.864H11.7425V6.112H13.5665V1.696ZM23.3532 16C24.3772 15.008 25.3532 14.032 26.2812 13.072C27.2092 12.112 28.0412 11.184 28.7772 10.288C29.5292 9.392 30.1212 8.528 30.5532 7.696C30.9852 6.848 31.2012 6.032 31.2012 5.248C31.2012 4.72 31.1132 4.272 30.9372 3.904C30.7612 3.52 30.5292 3.208 30.2412 2.968C29.9692 2.728 29.6572 2.552 29.3052 2.44C28.9532 2.312 28.5932 2.248 28.2252 2.248C27.6972 2.248 27.2492 2.336 26.8812 2.512C26.5132 2.672 26.2092 2.888 25.9692 3.16C25.7452 3.432 25.5772 3.72 25.4652 4.024C25.3692 4.328 25.3212 4.632 25.3212 4.936C25.3212 5.464 25.4012 5.944 25.5612 6.376C25.7212 6.792 25.9532 7.16 26.2572 7.48L24.8172 8.752C24.4492 8.512 24.1292 8.176 23.8572 7.744C23.6012 7.312 23.4012 6.848 23.2572 6.352C23.1292 5.84 23.0652 5.384 23.0652 4.984C23.0652 4.12 23.2732 3.312 23.6892 2.56C24.1212 1.792 24.7452 1.176 25.5612 0.711999C26.3932 0.248 27.4012 0.0159998 28.5852 0.0159998C29.5932 0.0159998 30.4732 0.248 31.2252 0.711999C31.9772 1.176 32.5612 1.792 32.9772 2.56C33.3932 3.312 33.6012 4.144 33.6012 5.056C33.6012 5.856 33.4412 6.64 33.1212 7.408C32.8012 8.176 32.3692 8.936 31.8252 9.688C31.2972 10.44 30.7052 11.184 30.0492 11.92C29.4092 12.64 28.7692 13.368 28.1292 14.104L27.1212 13.768H34.1293V16H23.3532ZM34.0314 0.207999H38.1594V16H35.8314V2.44H34.0314V0.207999Z" fill="#8E5D2B"/>
</svg>
